<svg version="1" xmlns="http://www.w3.org/2000/svg" width="666.667" height="666.667" viewBox="0 0 500.000000 500.000000"><path d="M109.5 68.6c-4 2.1-6.4 4.3-8.1 7.6-1.7 3.3-1.8 10.1-.2 13.1.6 1.2 29.5 40.7 64.3 87.7 34.7 47 63.4 86 63.8 86.6.4.7-26.6 38.3-62.5 87-34.7 47.3-63.9 87.7-64.9 89.9-2.4 5.2-2.4 7.9.2 13.1 2.2 4.7 8.2 8.4 13.5 8.4 7.1-.1 7.9-1.1 71.5-87.5 33.6-45.7 61.4-83.1 61.7-83.2.4-.1 28.3 37.3 62.1 83.2 55.4 75.3 61.9 83.7 65.8 85.6 3.4 1.6 5.4 2 8.8 1.5 13.5-2.1 18.6-15.2 10.4-27.2-1.9-2.7-30.6-42-63.9-87.2-33.3-45.3-60.6-82.8-60.7-83.5-.2-.6 28.1-39.9 62.8-87.2 34.7-47.3 63.8-87.6 64.6-89.5 4.3-9.9-3-20-14.4-20-8.1 0-7.8-.3-71.9 87.1-33.3 45.3-60.9 82.4-61.3 82.4-.5 0-28.1-37.1-61.3-82.5C135.5 79.8 129 71.3 125 69.2c-5.2-2.6-11.3-2.8-15.5-.6z"/></svg>